# xmcd CD database file
#
# Track frame offsets:
#	150
#	1932
#	17127
#	29905
#	52120
#	78205
#	99340
#	118375
#	127350
#	141540
#	160682
#	178320
#	196747
#	215420
#	230927
#	258370
#	277415
#	288302
#	311392
#
# Disc length: 4460 seconds
#
# Revision: 0
# Processed by: cddbd v1.4PL0 Copyright (c) Steve Scherf et al.
# Submitted via: CDex 1.40Release
#
DISCID=29116a13
DTITLE=Blues Quam Perfect - Absolut Live!
DYEAR=1992
DGENRE=Blues
TTITLE0=Intro Kuckuck
TTITLE1=See See Rider
TTITLE2=Medley Lovemachine - Papa Was
TTITLE3=Lovetrain Around The World
TTITLE4=Happy Birthday Blues
TTITLE5=Woke Up This Morning
TTITLE6=Do Right Woman - Do Right Man
TTITLE7=Saxo-Bari
TTITLE8=Soulman
TTITLE9=I Don't Want To Talk About It
TTITLE10=Cold Sweat
TTITLE11=Nore's Shuffle
TTITLE12=Baby Let Me Feel For You
TTITLE13=In The Midnight Hour
TTITLE14=Rambling On My Mind
TTITLE15=I'm A Bluesman
TTITLE16=Great Balls Of Fire
TTITLE17=Everybody Needs Somebody
TTITLE18=Wonderful Tonight
EXTD=YEAR: 1992 ID3G: 0
EXTT0=
EXTT1=
EXTT2=
EXTT3=
EXTT4=
EXTT5=
EXTT6=
EXTT7=
EXTT8=
EXTT9=
EXTT10=
EXTT11=
EXTT12=
EXTT13=
EXTT14=
EXTT15=
EXTT16=
EXTT17=
EXTT18=
PLAYORDER=
